HIERARCHY
ROOT Hips
{
	OFFSET 0.000000 0.000000 0.000000
	CHANNELS 6 Xposition Yposition Zposition Zrotation Yrotation Xrotation 
	JOINT Spine
	{
		OFFSET 0.000000 10.181600 0.131500
		CHANNELS 3 Zrotation Yrotation Xrotation
		JOINT Spine1
		{
			OFFSET 0.000000 10.083500 -1.000800
			CHANNELS 3 Zrotation Yrotation Xrotation
			JOINT Spine2
			{
				OFFSET 0.000000 9.100000 -1.373400
				CHANNELS 3 Zrotation Yrotation Xrotation
				JOINT Neck
				{
					OFFSET 0.000000 16.671700 -2.516200
					CHANNELS 3 Zrotation Yrotation Xrotation
					JOINT Head
					{
						OFFSET -0.000000 9.617900 1.685000
						CHANNELS 3 Zrotation Yrotation Xrotation
						JOINT HeadTop_End
						{
							OFFSET -0.000000 17.815200 2.585000
							CHANNELS 3 Zrotation Yrotation Xrotation
							End Site
							{
								OFFSET 0.000000 0.000000 0.000000
							}
						}
						JOINT LeftEye
						{
							OFFSET 3.067600 6.409500 9.283600
							CHANNELS 3 Zrotation Yrotation Xrotation
							End Site
							{
								OFFSET 0.000000 0.000000 0.000000
							}
						}
						JOINT RightEye
						{
							OFFSET -3.067600 6.409500 9.283500
							CHANNELS 3 Zrotation Yrotation Xrotation
							End Site
							{
								OFFSET 0.000000 0.000000 0.000000
							}
						}
					}
				}
				JOINT LeftShoulder
				{
					OFFSET 4.570400 10.946000 -2.628000
					CHANNELS 3 Zrotation Yrotation Xrotation
					JOINT LeftArm
					{
						OFFSET 10.592400 -0.524600 -2.232100
						CHANNELS 3 Zrotation Yrotation Xrotation
						JOINT LeftForeArm
						{
							OFFSET 27.841500 -0.000100 0.000000
							CHANNELS 3 Zrotation Yrotation Xrotation
							JOINT LeftHand
							{
								OFFSET 28.328800 -0.000000 0.000000
								CHANNELS 3 Zrotation Yrotation Xrotation
								JOINT LeftHandThumb1
								{
									OFFSET 2.466100 -1.575000 2.682400
									CHANNELS 3 Zrotation Yrotation Xrotation
									JOINT LeftHandThumb2
									{
										OFFSET 3.229800 -1.864700 1.864700
										CHANNELS 3 Zrotation Yrotation Xrotation
										JOINT LeftHandThumb3
										{
											OFFSET 2.652600 -1.531500 1.531500
											CHANNELS 3 Zrotation Yrotation Xrotation
											JOINT LeftHandThumb4
											{
												OFFSET 1.954600 -1.128500 1.128500
												CHANNELS 3 Zrotation Yrotation Xrotation
												End Site
												{
													OFFSET 0.000000 0.000000 0.000000
												}
											}
										}
									}
								}
								JOINT LeftHandIndex1
								{
									OFFSET 9.109300 -0.517100 2.260100
									CHANNELS 3 Zrotation Yrotation Xrotation
									JOINT LeftHandIndex2
									{
										OFFSET 3.676400 -0.000000 0.000000
										CHANNELS 3 Zrotation Yrotation Xrotation
										JOINT LeftHandIndex3
										{
											OFFSET 2.883100 0.000000 -0.000000
											CHANNELS 3 Zrotation Yrotation Xrotation
											JOINT LeftHandIndex4
											{
												OFFSET 2.392700 0.000000 0.000000
												CHANNELS 3 Zrotation Yrotation Xrotation
												End Site
												{
													OFFSET 0.000000 0.000000 0.000000
												}
											}
										}
									}
								}
								JOINT LeftHandMiddle1
								{
									OFFSET 9.533400 -0.000000 0.000000
									CHANNELS 3 Zrotation Yrotation Xrotation
									JOINT LeftHandMiddle2
									{
										OFFSET 3.698200 0.000000 0.000000
										CHANNELS 3 Zrotation Yrotation Xrotation
										JOINT LeftHandMiddle3
										{
											OFFSET 2.950900 -0.000000 0.000000
											CHANNELS 3 Zrotation Yrotation Xrotation
											JOINT LeftHandMiddle4
											{
												OFFSET 2.833900 -0.000000 -0.000000
												CHANNELS 3 Zrotation Yrotation Xrotation
												End Site
												{
													OFFSET 0.000000 0.000000 0.000000
												}
											}
										}
									}
								}
								JOINT LeftHandRing1
								{
									OFFSET 9.104500 -0.043900 -1.865100
									CHANNELS 3 Zrotation Yrotation Xrotation
									JOINT LeftHandRing2
									{
										OFFSET 3.154000 -0.000000 0.000000
										CHANNELS 3 Zrotation Yrotation Xrotation
										JOINT LeftHandRing3
										{
											OFFSET 2.937700 -0.000000 -0.000000
											CHANNELS 3 Zrotation Yrotation Xrotation
											JOINT LeftHandRing4
											{
												OFFSET 2.647500 -0.000000 0.000000
												CHANNELS 3 Zrotation Yrotation Xrotation
												End Site
												{
													OFFSET 0.000000 0.000000 0.000000
												}
											}
										}
									}
								}
								JOINT LeftHandPinky1
								{
									OFFSET 8.077800 -0.488700 -3.806100
									CHANNELS 3 Zrotation Yrotation Xrotation
									JOINT LeftHandPinky2
									{
										OFFSET 3.600000 -0.000000 -0.000000
										CHANNELS 3 Zrotation Yrotation Xrotation
										JOINT LeftHandPinky3
										{
											OFFSET 2.114200 0.000000 -0.000000
											CHANNELS 3 Zrotation Yrotation Xrotation
											JOINT LeftHandPinky4
											{
												OFFSET 1.975700 0.000000 -0.000000
												CHANNELS 3 Zrotation Yrotation Xrotation
												End Site
												{
													OFFSET 0.000000 0.000000 0.000000
												}
											}
										}
									}
								}
							}
						}
					}
				}
				JOINT RightShoulder
				{
					OFFSET -4.570000 10.946200 -2.628000
					CHANNELS 3 Zrotation Yrotation Xrotation
					JOINT RightArm
					{
						OFFSET -10.592800 -0.524800 -2.232100
						CHANNELS 3 Zrotation Yrotation Xrotation
						JOINT RightForeArm
						{
							OFFSET -27.841500 -0.000000 0.000000
							CHANNELS 3 Zrotation Yrotation Xrotation
							JOINT RightHand
							{
								OFFSET -28.328800 -0.000000 0.000100
								CHANNELS 3 Zrotation Yrotation Xrotation
								JOINT RightHandPinky1
								{
									OFFSET -8.076700 -0.488500 -3.806000
									CHANNELS 3 Zrotation Yrotation Xrotation
									JOINT RightHandPinky2
									{
										OFFSET -3.600000 0.000000 0.000100
										CHANNELS 3 Zrotation Yrotation Xrotation
										JOINT RightHandPinky3
										{
											OFFSET -2.114200 0.000000 0.000000
											CHANNELS 3 Zrotation Yrotation Xrotation
											JOINT RightHandPinky4
											{
												OFFSET -1.975700 -0.000000 -0.000000
												CHANNELS 3 Zrotation Yrotation Xrotation
												End Site
												{
													OFFSET 0.000000 0.000000 0.000000
												}
											}
										}
									}
								}
								JOINT RightHandRing1
								{
									OFFSET -9.103600 -0.043900 -1.865100
									CHANNELS 3 Zrotation Yrotation Xrotation
									JOINT RightHandRing2
									{
										OFFSET -3.154000 0.000000 0.000000
										CHANNELS 3 Zrotation Yrotation Xrotation
										JOINT RightHandRing3
										{
											OFFSET -2.937700 -0.000000 -0.000000
											CHANNELS 3 Zrotation Yrotation Xrotation
											JOINT RightHandRing4
											{
												OFFSET -2.647500 0.000000 -0.000000
												CHANNELS 3 Zrotation Yrotation Xrotation
												End Site
												{
													OFFSET 0.000000 0.000000 0.000000
												}
											}
										}
									}
								}
								JOINT RightHandMiddle1
								{
									OFFSET -9.532500 -0.000000 0.000000
									CHANNELS 3 Zrotation Yrotation Xrotation
									JOINT RightHandMiddle2
									{
										OFFSET -3.698200 0.000000 -0.000000
										CHANNELS 3 Zrotation Yrotation Xrotation
										JOINT RightHandMiddle3
										{
											OFFSET -2.950900 -0.000000 -0.000000
											CHANNELS 3 Zrotation Yrotation Xrotation
											JOINT RightHandMiddle4
											{
												OFFSET -2.833900 0.000000 0.000100
												CHANNELS 3 Zrotation Yrotation Xrotation
												End Site
												{
													OFFSET 0.000000 0.000000 0.000000
												}
											}
										}
									}
								}
								JOINT RightHandIndex1
								{
									OFFSET -9.108300 -0.516800 2.260100
									CHANNELS 3 Zrotation Yrotation Xrotation
									JOINT RightHandIndex2
									{
										OFFSET -3.676400 0.000000 0.000000
										CHANNELS 3 Zrotation Yrotation Xrotation
										JOINT RightHandIndex3
										{
											OFFSET -2.883100 -0.000000 0.000000
											CHANNELS 3 Zrotation Yrotation Xrotation
											JOINT RightHandIndex4
											{
												OFFSET -2.392700 0.000000 0.000000
												CHANNELS 3 Zrotation Yrotation Xrotation
												End Site
												{
													OFFSET 0.000000 0.000000 0.000000
												}
											}
										}
									}
								}
								JOINT RightHandThumb1
								{
									OFFSET -2.464800 -1.572700 2.682600
									CHANNELS 3 Zrotation Yrotation Xrotation
									JOINT RightHandThumb2
									{
										OFFSET -3.229800 -1.864700 1.864700
										CHANNELS 3 Zrotation Yrotation Xrotation
										JOINT RightHandThumb3
										{
											OFFSET -2.652600 -1.531400 1.531400
											CHANNELS 3 Zrotation Yrotation Xrotation
											JOINT RightHandThumb4
											{
												OFFSET -1.954600 -1.128500 1.128500
												CHANNELS 3 Zrotation Yrotation Xrotation
												End Site
												{
													OFFSET 0.000000 0.000000 0.000000
												}
											}
										}
									}
								}
							}
						}
					}
				}
			}
		}
	}
	JOINT LeftUpLeg
	{
		OFFSET 8.207800 -6.751700 -1.599600
		CHANNELS 3 Zrotation Yrotation Xrotation
		JOINT LeftLeg
		{
			OFFSET -0.000000 -44.370500 0.284600
			CHANNELS 3 Zrotation Yrotation Xrotation
			JOINT LeftFoot
			{
				OFFSET 0.000000 -44.427900 -2.982200
				CHANNELS 3 Zrotation Yrotation Xrotation
				JOINT LeftToeBase
				{
					OFFSET -0.000000 -8.728700 10.710600
					CHANNELS 3 Zrotation Yrotation Xrotation
					JOINT LeftToe_End
					{
						OFFSET -0.000000 -0.000700 9.278100
						CHANNELS 3 Zrotation Yrotation Xrotation
						End Site
						{
							OFFSET 0.000000 0.000000 0.000000
						}
					}
				}
			}
		}
	}
	JOINT RightUpLeg
	{
		OFFSET -8.207800 -6.751700 -1.599600
		CHANNELS 3 Zrotation Yrotation Xrotation
		JOINT RightLeg
		{
			OFFSET 0.000000 -44.370500 0.286200
			CHANNELS 3 Zrotation Yrotation Xrotation
			JOINT RightFoot
			{
				OFFSET 0.000000 -44.427700 -2.983800
				CHANNELS 3 Zrotation Yrotation Xrotation
				JOINT RightToeBase
				{
					OFFSET -0.000000 -8.728700 10.710600
					CHANNELS 3 Zrotation Yrotation Xrotation
					JOINT RightToe_End
					{
						OFFSET -0.000000 -0.000700 9.278100
						CHANNELS 3 Zrotation Yrotation Xrotation
						End Site
						{
							OFFSET 0.000000 0.000000 0.000000
						}
					}
				}
			}
		}
	}
}
MOTION
Frames: 4
Frame Time: 0.033333
9.763454 90.332428 140.982025 5.466183 30.071335 14.417735 5.953131 -3.571033 5.179144 8.932240 -10.004743 8.930590 8.779947 -10.061794 9.018067 2.009595 -1.083573 -15.346082 -2.651625 -4.473361 -2.148051 0.000000 0.000000 0.000000 0.000000 0.000000 0.000000 0.000000 0.000000 0.000000 -7.345926 -2.856518 1.457075 -33.528748 -22.537474 -8.185773 -0.000200 -40.956120 -0.000003 -12.016691 -8.845814 4.447199 6.061778 3.826406 -1.148855 1.308305 7.899638 4.090958 2.526903 1.610837 -0.504231 0.000000 0.000000 0.000000 -11.934219 1.424124 -0.148865 -11.934215 1.424123 -0.148862 -5.966187 0.715943 -0.037304 0.000000 0.000000 0.000000 -13.997393 1.665629 -0.204483 -12.340011 1.471803 -0.159122 -7.158059 0.858268 -0.053684 0.000000 0.000000 0.000000 -19.413431 2.288315 -0.391475 -13.336051 1.588445 -0.185709 -7.347719 0.880872 -0.056565 0.000000 0.000000 0.000000 -28.776104 7.421059 -0.833815 -12.451166 -2.539034 0.707336 -5.966181 0.715937 -0.037305 0.000000 0.000000 0.000000 11.779384 4.045284 2.983536 43.328091 4.042624 -4.652737 0.000040 73.625916 0.000036 -14.855038 -6.856593 3.854590 28.544739 -3.321491 -0.844744 -0.000045 0.001603 -0.000007 -7.373829 0.892615 -0.057519 0.000000 0.000000 0.000000 16.126057 -1.931144 -0.273597 0.000032 0.000007 0.000010 -6.449917 0.781269 -0.044032 0.000000 0.000000 0.000000 7.313179 -0.885304 -0.056580 0.000009 -0.000001 0.000007 -6.150914 0.743197 -0.040043 0.000000 0.000000 0.000000 0.328318 -0.039844 -0.000116 0.459405 -0.055776 -0.000225 -7.373862 0.892601 -0.057511 0.000000 0.000000 0.000000 -6.488739 -3.762495 -1.439575 -0.935621 -8.607990 4.734342 -2.102393 0.077448 -1.273225 0.000000 0.000000 0.000000 -11.228428 -4.107220 9.714435 -2.947030 -8.875856 13.453543 22.578859 -11.526360 -32.684467 0.000003 -0.000000 -4.803912 0.000000 0.000000 0.000000 2.662822 -5.734126 -58.664532 -4.402652 -3.806472 46.139408 -5.813942 -1.149390 -2.416893 -0.000002 -0.000001 0.022419 0.000000 0.000000 0.000000 
10.647658 89.276115 146.297821 6.964798 28.506205 14.900812 5.672834 -3.938222 5.297616 7.757430 -10.919696 9.059574 7.568152 -10.979862 9.153769 0.332889 -0.611230 -16.538464 -3.944361 -3.436175 -4.423748 0.000000 0.000000 0.000000 0.000000 0.000000 0.000000 0.000000 0.000000 0.000000 -7.527408 -2.065052 1.295059 -30.659307 -17.135437 -9.868800 -0.000207 -48.317184 0.000005 -8.934011 -8.247539 2.560357 6.061778 3.826406 -1.148855 1.308305 7.899638 4.090958 2.526903 1.610837 -0.504231 0.000000 0.000000 0.000000 -8.870121 1.062029 -0.082371 -8.870134 1.062012 -0.082373 -4.434681 0.532598 -0.020632 0.000000 0.000000 0.000000 -11.507228 1.373891 -0.138431 -9.383535 1.122933 -0.092155 -5.359471 0.643362 -0.030104 0.000000 0.000000 0.000000 -16.921518 2.004099 -0.298134 -10.379257 1.240815 -0.112703 -5.549134 0.666059 -0.032284 0.000000 0.000000 0.000000 -25.691980 7.093717 -0.663974 -9.389276 -2.941191 0.560916 -4.434665 0.532613 -0.020627 0.000000 0.000000 0.000000 11.788125 3.900612 2.927998 45.720425 3.203218 -1.248109 -0.000023 74.887222 -0.000010 -16.663286 -6.463305 5.243495 26.743807 -3.128444 -0.743474 0.000047 0.001615 0.000005 -8.271691 1.000561 -0.072355 0.000000 0.000000 0.000000 14.665918 -1.760443 -0.226566 -0.000038 0.000009 0.000006 -7.314824 0.885502 -0.056618 0.000000 0.000000 0.000000 5.854260 -0.709402 -0.036273 0.000081 0.000010 -0.000003 -7.121024 0.860148 -0.053650 0.000000 0.000000 0.000000 -1.466936 0.178064 -0.002269 0.000007 0.000006 -0.000011 -8.271726 1.000544 -0.072348 0.000000 0.000000 0.000000 -6.488739 -3.762495 -1.439575 -0.935621 -8.607990 4.734342 -2.102393 0.077448 -1.273225 0.000000 0.000000 0.000000 -11.221892 -3.300572 17.552444 -1.659229 -9.985862 3.570481 21.165710 -12.718118 -28.183548 -0.000002 -0.000004 -12.924133 0.000000 0.000000 0.000000 3.528027 -2.365407 -59.420319 -6.572188 -5.701515 45.468735 -8.811668 -3.925875 0.862845 0.000004 0.000005 -0.000023 0.000000 0.000000 0.000000 
11.236662 88.212463 151.609344 7.481948 26.953133 14.221839 5.404307 -4.230408 5.676034 6.360844 -11.520581 9.770164 6.142332 -11.564298 9.871110 -0.914870 -0.273222 -17.784010 -3.897243 -2.451486 -7.150874 0.000000 0.000000 0.000000 0.000000 0.000000 0.000000 0.000000 0.000000 0.000000 -7.927435 -1.320156 1.186451 -27.740704 -10.383157 -10.939773 -0.000213 -58.883884 0.000000 -6.160223 -9.747826 -0.884026 6.061778 3.826406 -1.148855 1.308305 7.899638 4.090958 2.526903 1.610837 -0.504231 0.000000 0.000000 0.000000 -6.111335 0.733277 -0.039142 -6.111343 0.733293 -0.039138 -3.055544 0.367161 -0.009797 0.000000 0.000000 0.000000 -9.265203 1.108884 -0.089852 -6.721619 0.806186 -0.047340 -3.739894 0.449291 -0.014671 0.000000 0.000000 0.000000 -14.678150 1.744858 -0.224747 -7.717168 0.924899 -0.062383 -3.929508 0.472049 -0.016181 0.000000 0.000000 0.000000 -22.917265 6.791522 -0.526509 -6.629977 -3.296224 0.410773 -3.055520 0.367175 -0.009787 0.000000 0.000000 0.000000 11.790487 3.923034 2.937484 48.981693 2.192277 0.772388 0.000013 75.232513 0.000030 -17.870960 -6.145333 4.871649 25.541338 -2.997782 -0.679251 0.000018 0.001596 -0.000003 -8.871428 1.072521 -0.083197 0.000000 0.000000 0.000000 13.690854 -1.645780 -0.197588 -0.000020 -0.000005 -0.000001 -7.892572 0.955005 -0.065875 0.000000 0.000000 0.000000 4.879922 -0.591658 -0.025206 0.000045 0.000005 0.000004 -7.769018 0.938126 -0.063841 0.000000 0.000000 0.000000 -2.665958 0.323534 -0.007529 0.000033 -0.000016 -0.000003 -8.871442 1.072520 -0.083197 0.000000 0.000000 0.000000 -6.488739 -3.762495 -1.439575 -0.935621 -8.607990 4.734342 -2.102393 0.077448 -1.273225 0.000000 0.000000 0.000000 -9.766333 -2.757215 22.167980 -1.474658 -9.567226 0.625966 19.966200 -16.935539 -26.103703 0.000000 -0.000003 -13.272904 0.000000 0.000000 0.000000 4.021799 2.052087 -59.158947 -7.689439 -5.782605 48.559086 -9.919546 -9.168136 -1.342380 -0.000005 0.000009 -0.010651 0.000000 0.000000 0.000000 
11.270736 87.118530 156.662613 7.134860 25.656057 12.886581 5.253419 -4.365231 6.188516 4.718304 -11.512608 10.843648 4.490784 -11.523691 10.944654 -1.491212 -0.172397 -18.745813 -2.257884 -1.860285 -9.449023 0.000000 0.000000 0.000000 0.000000 0.000000 0.000000 0.000000 0.000000 0.000000 -8.244490 -0.786792 1.110747 -25.757643 -5.096934 -13.046579 -0.000192 -68.194458 -0.000019 -4.537927 -12.286605 -3.905489 6.061778 3.826406 -1.148855 1.308305 7.899638 4.090958 2.526903 1.610837 -0.504231 0.000000 0.000000 0.000000 -4.502204 0.540684 -0.021256 -4.502195 0.540687 -0.021256 -2.251066 0.270571 -0.005323 0.000000 0.000000 0.000000 -7.957522 0.953502 -0.066321 -5.169013 0.620556 -0.028012 -2.795142 0.335909 -0.008194 0.000000 0.000000 0.000000 -13.369801 1.592372 -0.186651 -6.164448 0.739648 -0.039834 -2.984768 0.358670 -0.009334 0.000000 0.000000 0.000000 -21.299759 6.612340 -0.453210 -5.019510 -3.499869 0.315297 -2.251047 0.270558 -0.005326 0.000000 0.000000 0.000000 11.791320 4.005904 2.970541 52.951523 1.125062 1.244036 -0.000037 74.216888 -0.000028 -18.693977 -6.448400 3.343674 24.722807 -2.908070 -0.637105 0.000005 0.001598 -0.000002 -9.279747 1.121452 -0.091018 0.000000 0.000000 0.000000 13.027028 -1.567449 -0.178972 0.000068 -0.000006 0.000001 -8.285872 1.002263 -0.072608 0.000000 0.000000 0.000000 4.216579 -0.511407 -0.018824 -0.000012 0.000010 0.000001 -8.210196 0.991143 -0.071283 0.000000 0.000000 0.000000 -3.482353 0.422468 -0.012842 0.000015 0.000005 0.000000 -9.279731 1.121461 -0.091021 0.000000 0.000000 0.000000 -6.488739 -3.762495 -1.439575 -0.935621 -8.607990 4.734342 -2.102393 0.077448 -1.273225 0.000000 0.000000 0.000000 -5.317568 -3.194064 8.593740 -6.790239 -7.902470 31.341454 7.810797 -28.153435 -25.387770 0.000003 -0.000003 -26.252024 0.000000 0.000000 0.000000 5.115095 6.407073 -58.017139 -8.376235 -5.135777 53.205502 -9.567079 -13.646499 -5.448451 0.000005 -0.000001 -0.060485 0.000000 0.000000 0.000000 
